<svg xmlns="http://www.w3.org/2000/svg"  viewBox="0 0 30 30" width="30px" height="30px"><path d="M 16.621094 4 C 16.085094 4 15.646484 4.4120156 15.646484 4.9160156 L 15.646484 8.2773438 L 15 8.2773438 L 15 10.111328 L 15.648438 10.111328 L 15.648438 14.087891 C 15.648438 14.590891 16.084187 15.001953 16.617188 15.001953 L 19.201172 15.001953 C 19.737172 15.001953 20.177734 14.589937 20.177734 14.085938 L 20.177734 11.322266 C 20.177734 10.335266 19.341781 9.5388125 18.300781 9.5078125 L 18.300781 9.4960938 C 19.341781 9.4650937 20.177734 8.6676406 20.177734 7.6816406 L 20.175781 7.6816406 L 20.175781 4.9121094 C 20.175781 4.4091094 19.739078 4 19.205078 4 L 16.621094 4 z M 4.9707031 4.0019531 C 4.4537031 4.0019531 4 4.4299687 4 4.9179688 L 4 15.001953 L 5.9414062 15.001953 L 5.9414062 10.722656 L 7.5605469 10.722656 C 8.0775469 10.722656 8.5292969 10.294641 8.5292969 9.8066406 L 8.5292969 4.9179688 C 8.5292969 4.4299687 8.0765938 4.0019531 7.5585938 4.0019531 L 4.9707031 4.0019531 z M 9.1777344 4.0019531 L 9.1777344 14.085938 C 9.1777344 14.573937 9.6284844 15.001953 10.146484 15.001953 L 13.382812 15.001953 C 13.900813 15.001953 14.353516 14.573938 14.353516 14.085938 L 14.353516 4.0019531 L 12.410156 4.0019531 L 12.410156 13.167969 L 11.117188 13.167969 L 11.117188 4.0019531 L 9.1777344 4.0019531 z M 21.794922 4.0019531 C 21.277922 4.0019531 20.824219 4.4299688 20.824219 4.9179688 L 20.824219 14.083984 C 20.824219 14.572984 21.276922 15.001953 21.794922 15.001953 L 25.029297 15.001953 C 25.546297 15.001953 26 14.572984 26 14.083984 L 26 9.1953125 C 26 8.7073125 25.547297 8.2792969 25.029297 8.2792969 L 23.412109 8.2792969 L 23.412109 10.113281 L 24.058594 10.113281 L 24.058594 13.169922 L 22.765625 13.169922 L 22.765625 5.8359375 L 24.058594 5.8359375 L 24.058594 7.0566406 L 26 7.0566406 L 26 4.9179688 C 26 4.4299688 25.546297 4.0009531 25.029297 4.0019531 L 21.794922 4.0019531 z M 5.9414062 5.8359375 L 6.5898438 5.8359375 L 6.5898438 8.890625 L 5.9414062 8.890625 L 5.9414062 5.8359375 z M 17.587891 5.8359375 L 18.234375 5.8359375 L 18.234375 8.2792969 L 17.587891 8.2792969 L 17.587891 5.8359375 z M 17.587891 10.113281 L 18.234375 10.113281 L 18.234375 13.169922 L 17.587891 13.169922 L 17.587891 10.113281 z M 5 18 C 4.448 18 4 18.448 4 19 A 1.0001 1.0001 0 1 0 4 21 L 4 24 L 4 26 C 4 26.552 4.448 27 5 27 L 25 27 C 25.552 27 26 26.552 26 26 A 1.0001 1.0001 0 1 0 26 24 L 26 21 A 1.0001 1.0001 0 1 0 26 19 C 26 18.448 25.552 18 25 18 L 5 18 z M 6 20 L 7.1132812 20 L 7.1132812 24.447266 L 8.7792969 24.447266 L 8.7792969 25 L 6 25 L 6 20 z M 11.347656 20 L 12.455078 20 L 12.455078 25 L 11.347656 25 L 11.347656 20 z M 15.279297 20 L 18.611328 20 L 18.611328 20.552734 L 17.498047 20.552734 L 17.498047 25 L 16.392578 25 L 16.392578 20.552734 L 15.279297 20.552734 L 15.279297 20 z M 21 20 L 23.779297 20 L 23.779297 20.552734 L 22.113281 20.552734 L 22.113281 22.220703 L 23.226562 22.220703 L 23.226562 22.779297 L 22.113281 22.779297 L 22.113281 24.447266 L 23.779297 24.447266 L 23.779297 25 L 21 25 L 21 20 z"/></svg>